<svg xmlns="http://www.w3.org/2000/svg" xmlns:xlink="http://www.w3.org/1999/xlink" x="0px" y="0px" viewBox="0 0 220 35" style="enable-background:new 0 0 220 35;" xml:space="preserve"><style type="text/css">	.st0{fill-rule:evenodd;clip-rule:evenodd;fill:#FFFDFD;}	.st1{fill:#FFFDFD;}</style><g xmlns:cc="http://creativecommons.org/ns#" xmlns:dc="http://purl.org/dc/elements/1.1/" xmlns:inkscape="http://www.inkscape.org/namespaces/inkscape" xmlns:rdf="http://www.w3.org/1999/02/22-rdf-syntax-ns#" xmlns:sodipodi="http://sodipodi.sourceforge.net/DTD/sodipodi-0.dtd" xmlns:svg="http://www.w3.org/2000/svg" id="Layer_1">				<g id="Cleveland">		<path id="C1" inkscape:connector-curvature="0" class="st0" d="M56.9,20.7c-0.6,3.9-3.2,6.2-7.1,6.2c-5.4,0-7.8-5-7.8-9.7   c0-4.8,2.4-9.7,7.8-9.7c3.9,0,6.5,2.2,7.1,6.2l-3.6,0.5c-0.4-2-1.2-3.7-3.5-3.7c-3.2,0-3.9,4.3-3.9,6.7s0.7,6.7,3.9,6.7   c2.3,0,3.2-1.8,3.5-3.7L56.9,20.7z"></path>		<path id="l1" inkscape:connector-curvature="0" class="st0" d="M59.1,7.7h3.6v18.9h-3.6V7.7z"></path>		<path id="e1" inkscape:connector-curvature="0" class="st0" d="M68.5,20.7c-0.1,1.6,0.8,3.6,2.7,3.6c1.1,0,1.9-0.7,2.3-2l3.4,0.4   c-0.8,2.7-3.4,4.2-5.9,4.2c-4,0-6-3.5-6-7.1s2-7.1,6-7.1c3.4,0,6,1.6,5.9,7.9h-8.4V20.7z M73.3,18.4c0-1.5-0.6-3-2.3-3   c-1.6,0-2.3,1.6-2.3,3H73.3z"></path>		<path id="v" inkscape:connector-curvature="0" class="st0" d="M85.7,26.6h-3.8L77.7,13h3.7l2.4,10h0.1l2.3-10h3.6L85.7,26.6z"></path>		<path id="e2" inkscape:connector-curvature="0" class="st0" d="M94,20.7c-0.1,1.6,0.8,3.6,2.7,3.6c1.1,0,1.9-0.7,2.3-2l3.4,0.4   c-0.8,2.7-3.4,4.2-5.9,4.2c-4,0-6-3.5-6-7.1s2-7.1,6-7.1c3.4,0,6,1.6,5.9,7.9H94V20.7z M98.8,18.4c0-1.5-0.6-3-2.3-3   c-1.6,0-2.3,1.6-2.3,3H98.8z"></path>		<path id="l2" inkscape:connector-curvature="0" class="st0" d="M104.7,7.7h3.6v18.9h-3.6V7.7z"></path>		<path id="a" inkscape:connector-curvature="0" class="st0" d="M118.6,25.3c-1.3,0.9-2.2,1.5-3.9,1.5c-2.4,0-4.3-1.6-4.3-4   c0-3.8,5-4.6,7.9-4.9c0.2-1.9-0.4-2.6-1.7-2.6c-1.1,0-2,0.5-2.2,1.7l-3.4-0.5c0.8-2.9,2.7-3.8,5.6-3.8c3.7,0,5.3,1.7,5.3,4.3v6.7   c0,1,0,1.9,0.5,2.8H119C118.7,26,118.6,25.3,118.6,25.3z M118.4,20.4c-1.5,0.3-4.4,0.4-4.4,2.4c0,0.8,0.4,1.5,1.2,1.5   c1.5,0,2.5-0.9,3.2-1.8L118.4,20.4z"></path>		<path id="n1" inkscape:connector-curvature="0" class="st0" d="M128.5,14.4c1.1-0.9,2.5-1.7,4.1-1.7c1.5,0,3.6,0.9,3.6,4.2v9.6   h-3.6v-8.2c0-1.1,0.1-2.8-1.5-2.8c-1,0-1.9,0.8-2.5,1.5v9.5H125V13h3.6v1.4H128.5z"></path>		<path id="d" inkscape:connector-curvature="0" class="st0" d="M150.5,24.2V7.7h-3.6v6.6c-1-0.9-1.9-1.6-3.3-1.6c-2,0-5,1.7-5,6.7   c0,5.7,2.5,7.4,5.3,7.4c1.5,0,2.3-0.5,3.4-1.5c0,0,0.1,0.7,0.4,1.2h3.3C150.6,25.8,150.5,25,150.5,24.2L150.5,24.2z M146.9,22.3   c-0.6,0.8-1.3,1.6-2.3,1.6c-2.2,0-2.5-2.6-2.5-4.2c0-1.5,0.4-4,2.4-4c1,0,1.8,0.7,2.4,1.5L146.9,22.3z"></path>	</g>	<g id="Clinic">		<path id="C2" inkscape:connector-curvature="0" class="st0" d="M173.1,20.7c-0.6,3.9-3.2,6.2-7.1,6.2c-5.4,0-7.8-5-7.8-9.7   c0-4.8,2.4-9.7,7.8-9.7c3.9,0,6.5,2.2,7.1,6.2l-3.6,0.5c-0.4-2-1.2-3.7-3.5-3.7c-3.2,0-3.9,4.3-3.9,6.7s0.7,6.7,3.9,6.7   c2.3,0,3.2-1.8,3.5-3.7L173.1,20.7z"></path>		<path id="l3" inkscape:connector-curvature="0" class="st0" d="M175.3,7.7h3.6v18.9h-3.6V7.7z"></path>		<g id="i1">			<path id="i1stem" inkscape:connector-curvature="0" class="st0" d="M185.5,26.6h-3.6V13h3.6V26.6z"></path>			<path id="i1tittle" inkscape:connector-curvature="0" class="st0" d="M185.5,11h-3.6V7.7h3.6V11z"></path>		</g>		<path id="n2" inkscape:connector-curvature="0" class="st0" d="M192,14.4c1.1-0.9,2.5-1.7,4-1.7s3.6,0.9,3.6,4.2v9.6H196v-8.2   c0-1.1,0.1-2.8-1.5-2.8c-1,0-1.9,0.8-2.5,1.5v9.5h-3.6V13h3.6V14.4z"></path>		<g id="i2">			<path id="i2stem" inkscape:connector-curvature="0" class="st0" d="M206.1,26.6h-3.6V13h3.6V26.6z"></path>			<path id="i2tittle" inkscape:connector-curvature="0" class="st0" d="M206.1,11h-3.6V7.7h3.6V11z"></path>		</g>		<path id="c" inkscape:connector-curvature="0" class="st0" d="M220,22.2c-0.6,2.8-2.6,4.7-5.7,4.7c-4,0-6-3.5-6-7.1s2-7.1,6-7.1   c3,0,5.1,1.8,5.7,4.7l-3.3,0.4c-0.2-1.1-0.6-2.5-2.4-2.5c-1.9,0-2.3,2.7-2.3,4.4c0,1.7,0.3,4.4,2.3,4.4c1.8,0,2.1-1.2,2.4-2.5   L220,22.2z"></path>	</g></g><g id="Layer_2">	<g>		<g>			<g>				<path class="st1" d="M13.6,0H2.5C1.1,0,0,1.1,0,2.5v11.1c0,1.4,1.1,2.5,2.5,2.5h5.2v-5.9c0-1.4,1.1-2.5,2.5-2.5h5.9V2.5     C16.1,1.1,15,0,13.6,0z"></path>			</g>		</g>		<g>			<g>				<path class="st1" d="M31.8,0H20.7c-1.4,0-2.5,1.1-2.5,2.5v5.2h5.9c1.4,0,2.5,1.1,2.5,2.5v5.9h5.2c1.4,0,2.5-1.1,2.5-2.5V2.5     C34.3,1.1,33.2,0,31.8,0z"></path>			</g>		</g>		<g>			<g>				<path class="st1" d="M10.2,26.6c-1.4,0-2.5-1.1-2.5-2.5v-5.9H2.5c-1.4,0-2.5,1.1-2.5,2.5v11.1c0,1.4,1.1,2.5,2.5,2.5h11.1     c1.4,0,2.5-1.1,2.5-2.5v-5.2H10.2z"></path>			</g>		</g>		<g>			<g>				<path class="st1" d="M31.8,18.2h-5.2v5.9c0,1.4-1.1,2.5-2.5,2.5h-5.9v5.2c0,1.4,1.1,2.5,2.5,2.5h11.1c1.4,0,2.5-1.1,2.5-2.5     V20.7C34.3,19.3,33.2,18.2,31.8,18.2z"></path>			</g>		</g>	</g></g></svg>