<?xml version="1.0" encoding="UTF-8"?>
<svg id="Layer_1" data-name="Layer 1" xmlns="http://www.w3.org/2000/svg" viewBox="0 0 472.45 47.67">
  <defs>
    <style>
      .cls-1 {
        fill: none;
      }

      .cls-2 {
        fill: #00aeef;
      }

      .cls-3 {
        fill: #fff;
      }

      .cls-4 {
        fill: #92cb7c;
      }

      .cls-5 {
        fill: #1c75bc;
      }

      .cls-6 {
        fill: #5fbb46;
      }

      .cls-7 {
        fill: #21409a;
      }

      .cls-8 {
        fill: #d7eac9;
      }
    </style>
  </defs>
  <g>
    <path class="cls-1" d="M28.35,42.49v-14.15s0-14.15,0-14.15h14.17v-.07h-14.17V.01h0v14.12h-14.17V.01h0v14.18h0v14.14H0v-14.14H0V5.6s0,.05,0,.08v31.18s0,.05,0,.07v-8.6s14.17,0,14.17,0v14.14H4.94c.24.03.48.05.73.05h31.18c.22,0,.44-.02.65-.04h-9.15ZM28.35,42.49h-14.17v-14.15s0-14.15,0-14.15h14.17v14.15s0,0,0,0v14.15Z"/>
    <path class="cls-2" d="M28.35,28.35v14.17s9.15,0,9.15,0c2.82-.32,5.02-2.72,5.02-5.64v-8.53h-14.17Z"/>
    <polygon class="cls-6" points="28.35 28.34 28.35 28.35 42.52 28.35 42.52 14.17 28.35 14.17 28.35 28.34"/>
    <rect class="cls-4" x="28.35" y="0" width="14.17" height="14.17"/>
    <rect class="cls-6" x="14.17" width="14.17" height="14.17"/>
    <polygon class="cls-5" points="14.17 28.35 14.17 42.52 28.35 42.52 28.35 28.35 14.17 28.35 14.17 28.35"/>
    <polygon class="cls-8" points="28.34 14.17 14.17 14.17 14.17 28.34 14.17 28.35 28.35 28.35 28.35 28.35 28.34 14.17"/>
    <path class="cls-7" d="M14.17,28.35H0v8.62c.04,2.86,2.17,5.2,4.93,5.56h9.24v-14.17Z"/>
    <rect class="cls-5" x="0" y="14.17" width="14.17" height="14.17"/>
    <path class="cls-2" d="M0,14.17h14.17V0H5.67C2.56,0,.04,2.49,0,5.58v8.58H0Z"/>
  </g>
  <g>
    <path class="cls-3" d="M72.47,37.16h-9.27V5.14h10.61c11.67,0,14.02,5.47,14.02,15.84s-3.36,16.18-15.36,16.18ZM81.3,18.68c0-6.43-3.31-8.4-7.68-8.4h-4.08v21.75h2.5c6.58,0,9.26-2.35,9.26-8.54v-4.8Z"/>
    <path class="cls-3" d="M95.41,10.47c-2.16,0-3.89-1.73-3.89-3.89s1.73-3.84,3.89-3.84,3.84,1.73,3.84,3.84-1.73,3.89-3.84,3.89ZM92.29,37.16V13.16h6.24v24h-6.24Z"/>
    <path class="cls-3" d="M126.66,17.72l-4.03-.38c.38.38,1.25,1.63,1.25,3.36,0,4.71-4.32,7.92-10.75,7.92-1.34,0-2.78-.14-3.31-.24-.24.29-.67.96-.67,1.49,0,.86.58,1.73,2.83,1.78l3.89.05c4.75.1,8.93,1.97,8.93,7.06,0,5.52-5.86,8.93-12.77,8.93s-9.94-2.74-9.94-6.91c0-2.35,1.87-4.61,4.46-5.71v-.05c-1.01-.19-3.02-1.15-3.02-3.65,0-2.06,1.92-3.74,2.83-4.32-1.2-.62-3.65-2.74-3.65-6.38,0-4.9,3.98-8.16,10.85-8.16,2.16,0,4.08.43,4.75.67l8.64-.14-.29,4.71ZM118.93,39.27c0-1.87-1.92-2.88-4.56-2.88h-3.6c-.91.34-2.74,1.49-2.74,3.6s1.92,3.6,4.8,3.6c3.74,0,6.1-1.97,6.1-3.89v-.43ZM118.02,20.26c0-2.11-1.54-3.65-4.42-3.65s-4.51,1.68-4.51,3.65v.86c0,2.21,1.49,3.6,4.42,3.6s4.51-1.63,4.51-3.6v-.86Z"/>
    <path class="cls-3" d="M132.85,10.47c-2.16,0-3.89-1.73-3.89-3.89s1.73-3.84,3.89-3.84,3.84,1.73,3.84,3.84-1.73,3.89-3.84,3.89ZM129.73,37.16V13.16h6.24v24h-6.24Z"/>
    <path class="cls-3" d="M149.89,37.83c-4.61,0-6.58-2.3-6.58-6.86l.05-12.82h-5.14v-4.99h5.14l.05-6,6.19-.72-.05,6.72h5.95v4.99h-5.95l-.05,11.76c0,2.11.82,2.98,2.64,2.98,1.1,0,2.54-.43,3.07-.62l.29,4.51c-.82.34-3.07,1.06-5.62,1.06Z"/>
    <path class="cls-3" d="M172.64,37.16l-.34-3.12h-.05c-.62,1.25-2.98,3.79-7.34,3.79-4.94,0-7.3-2.98-7.3-7.1,0-5.28,4.42-7.97,10.75-7.97,1.54,0,2.98.14,3.46.19v-2.06c0-2.54-1.82-3.46-4.61-3.46-2.64,0-5.09.72-7.44,1.78l-.29-4.9c2.5-1.15,5.47-1.82,8.78-1.82,5.57,0,9.79,1.49,9.79,8.35v16.32h-5.42ZM171.83,26.75c-.34-.05-1.25-.14-2.54-.14-2.4,0-5.42.86-5.42,3.7,0,1.97,1.3,2.98,3.17,2.98,2.5,0,4.8-2.3,4.8-5.42v-1.1Z"/>
    <path class="cls-3" d="M183.54,37.16V3.32h6.24v33.84h-6.24Z"/>
    <path class="cls-3" d="M223.33,37.16v-13.83h-11.86v13.83h-6.34V5.14h6.34v12.67h11.86V5.14h6.34v32.02h-6.34Z"/>
    <path class="cls-3" d="M254.63,26.79h-14.64v.53c0,2.78,1.44,5.57,5.81,5.57,2.74,0,5.28-.72,7.39-1.73l.29,4.85c-1.82,1.06-4.8,1.82-8.35,1.82-8.98,0-11.28-4.9-11.28-12.58s3.02-12.77,11.18-12.77c6.62,0,9.7,3.7,9.7,11.52,0,.48-.05,2.06-.1,2.78ZM244.79,16.76c-3.46,0-4.9,2.98-4.9,5.9h9.02c0-2.83-.53-5.9-4.13-5.9Z"/>
    <path class="cls-3" d="M272,37.16l-.34-3.12h-.05c-.62,1.25-2.98,3.79-7.34,3.79-4.94,0-7.3-2.98-7.3-7.1,0-5.28,4.42-7.97,10.75-7.97,1.54,0,2.98.14,3.46.19v-2.06c0-2.54-1.82-3.46-4.61-3.46-2.64,0-5.09.72-7.44,1.78l-.29-4.9c2.5-1.15,5.47-1.82,8.78-1.82,5.57,0,9.79,1.49,9.79,8.35v16.32h-5.42ZM271.19,26.75c-.34-.05-1.25-.14-2.54-.14-2.4,0-5.42.86-5.42,3.7,0,1.97,1.3,2.98,3.17,2.98,2.5,0,4.8-2.3,4.8-5.42v-1.1Z"/>
    <path class="cls-3" d="M282.9,37.16V3.32h6.24v33.84h-6.24Z"/>
    <path class="cls-3" d="M303.06,37.83c-4.61,0-6.58-2.3-6.58-6.86l.05-12.82h-5.14v-4.99h5.14l.05-6,6.19-.72-.05,6.72h5.95v4.99h-5.95l-.05,11.76c0,2.11.82,2.98,2.64,2.98,1.1,0,2.54-.43,3.07-.62l.29,4.51c-.82.34-3.07,1.06-5.62,1.06Z"/>
    <path class="cls-3" d="M327.49,37.16v-14.69c0-2.35-.72-4.51-4.03-4.51-2.64,0-4.94,2.11-4.94,4.46v14.74h-6.24V3.32h6.24v12.48h.05c.86-1.06,3.55-3.31,7.39-3.31,4.8,0,7.78,2.5,7.78,8.06v16.61h-6.24Z"/>
    <path class="cls-3" d="M380.77,37.16h-7.78l-5.47-25.97h-.05l-5.52,25.97h-7.73l-7.78-32.02h6.29l5.33,25.97h.1l5.38-25.97h8.35l5.09,25.97h.05l5.52-25.97h6.14l-7.92,32.02Z"/>
    <path class="cls-3" d="M399.87,37.83c-8.07,0-10.85-4.75-10.85-12.58s2.98-12.77,11.04-12.77,10.8,4.7,10.8,12.58-2.98,12.77-10.99,12.77ZM404.53,23.24c0-3.6-1.44-5.95-4.51-5.95s-4.66,2.45-4.66,6.05v3.74c0,3.6,1.44,5.95,4.51,5.95s4.66-2.45,4.66-6.05v-3.74Z"/>
    <path class="cls-3" d="M428.62,18.44c-.19-.05-.86-.14-1.78-.14-3.5,0-5.81,2.64-5.81,5.47v13.39h-6.19V13.16h5.91v3.55h.05c.53-1.06,2.54-4.22,6.91-4.22.58,0,1.06.05,1.2.1l-.29,5.86Z"/>
    <path class="cls-3" d="M446.58,37.16c-3.6-4.27-7.2-9.41-8.54-11.42h-.05v11.42h-6.19V3.32h6.19v19.63h.05l7.25-9.79h7.34l-8.54,10.75c1.34,1.87,5.23,7.2,10.23,13.25h-7.73Z"/>
    <path class="cls-3" d="M462.7,37.83c-2.78,0-5.28-.58-7.73-1.68l.29-4.9c2.16,1.2,4.46,1.97,6.86,1.97,3.17,0,4.03-1.3,4.03-2.64,0-1.58-1.06-2.3-3.89-3.26l-.58-.19c-3.94-1.25-6.67-3.26-6.67-7.63s3.6-7.01,9.36-7.01c2.64,0,5.23.72,6.82,1.54l-.29,4.85c-2.26-1.2-4.71-1.78-6.14-1.78-2.45,0-3.41.86-3.41,2.16,0,1.39,1.06,2.11,3.55,3.02l1.63.58c3.26,1.15,5.91,2.93,5.91,7.34,0,4.75-3.31,7.63-9.75,7.63Z"/>
  </g>
</svg>