<?xml version='1.0' encoding='utf-8'?>
<svg xmlns="http://www.w3.org/2000/svg" id="Layer_1" viewBox="0 0 42.52 42.53">
  <defs>
    </defs>
  <path class="cls-1" d="M28.35,42.49v-14.15s0-14.15,0-14.15h14.17v-.07h-14.17V.01h0v14.12h-14.17V.01h0v14.18h0v14.14H0v-14.14H0V5.6s0,.05,0,.08v31.18s0,.05,0,.07v-8.6s14.17,0,14.17,0v14.14H4.94c.24.03.48.05.73.05h31.18c.22,0,.44-.02.65-.04h-9.15ZM28.35,42.49h-14.17v-14.15s0-14.15,0-14.15h14.17v14.15s0,0,0,0v14.15Z"/>
  <path class="cls-2" d="M28.35,28.35v14.17s9.15,0,9.15,0c2.82-.32,5.02-2.72,5.02-5.64v-8.53h-14.17Z"/>
  <polygon class="cls-5" points="28.35 28.34 28.35 28.35 42.52 28.35 42.52 14.17 28.35 14.17 28.35 28.34"/>
  <rect class="cls-3" x="28.35" y="0" width="14.17" height="14.17"/>
  <rect class="cls-5" x="14.17" width="14.17" height="14.17"/>
  <polygon class="cls-4" points="14.17 28.35 14.17 42.52 28.35 42.52 28.35 28.35 14.17 28.35 14.17 28.35"/>
  <polygon class="cls-7" points="28.34 14.17 14.17 14.17 14.17 28.34 14.17 28.35 28.35 28.35 28.35 28.35 28.34 14.17"/>
  <path class="cls-6" d="M14.17,28.35H0v8.62c.04,2.86,2.17,5.2,4.93,5.56h9.24v-14.17Z"/>
  <rect class="cls-4" x="0" y="14.17" width="14.17" height="14.17"/>
  <path class="cls-2" d="M0,14.17h14.17V0H5.67C2.56,0,.04,2.49,0,5.58v8.58H0Z"/>
</svg>